PathFileType	4	(X/Y/Z)	C:/Users/opensim2020/Desktop/walking_exp_matlab/subject02_walking04_straight_04.trc																																																																																																																												
DataRate	CameraRate	NumFrames	NumMarkers	Units	OrigDataRate	OrigDataStartFrame	OrigNumFrames																																																																																																																								
100	100	9	42	mm	100	3043	239																																																																																																																								
Frame#	Time	LFHD			RFHD			LBHD			RBHD			C7			T10			CLAV			STRN			RBAK			LSHO			LUPA			LELB			LFRM			LWRA			LWRB			LFIN			RSHO			RUPA			RELB			RFRM			RWRA			RWRB			RFIN			LASI			RASI			LPSI			RPSI			LTHI			LKNE			LTIB			LANK			LHEE			LTOE			RTHI			RKNE			RTIB			RANK			RHEE			RTOE			*39			*40			*41		
		X1	Y1	Z1	X2	Y2	Z2	X3	Y3	Z3	X4	Y4	Z4	X5	Y5	Z5	X6	Y6	Z6	X7	Y7	Z7	X8	Y8	Z8	X9	Y9	Z9	X10	Y10	Z10	X11	Y11	Z11	X12	Y12	Z12	X13	Y13	Z13	X14	Y14	Z14	X15	Y15	Z15	X16	Y16	Z16	X17	Y17	Z17	X18	Y18	Z18	X19	Y19	Z19	X20	Y20	Z20	X21	Y21	Z21	X22	Y22	Z22	X23	Y23	Z23	X24	Y24	Z24	X25	Y25	Z25	X26	Y26	Z26	X27	Y27	Z27	X28	Y28	Z28	X29	Y29	Z29	X30	Y30	Z30	X31	Y31	Z31	X32	Y32	Z32	X33	Y33	Z33	X34	Y34	Z34	X35	Y35	Z35	X36	Y36	Z36	X37	Y37	Z37	X38	Y38	Z38	X39	Y39	Z39	X40	Y40	Z40	X41	Y41	Z41	X42	Y42	Z42
																																																																																																																															
120	1.19	78.23952	1712.90613	-1467.81958	52.90863	1687.48071	-1327.73096	-58.29001	1658.01807	-1500.27344	-95.20215	1633.48889	-1363.16479	-140.07501	1512.70081	-1434.84729	-193.79214	1233.03638	-1423.22009	-3.95647	1439.6239	-1442.95313	48.46629	1270.70044	-1435.38892	-200.20726	1334.24634	-1372.75171	-66.46539	1487.38232	-1613.16577	-59.91645	1289.87329	-1699.82581	-41.01271	1149.83533	-1719.22681	12.54929	1027.25745	-1733.97351	112.24922	933.21008	-1708.80408	65.78402	916.58948	-1736.43896	108.09579	866.55701	-1744.34167	-70.92909	1472.91345	-1246.97974	-116.88628	1286.24011	-1166.92908	-115.10593	1140.3501	-1148.57751	-97.75275	1023.13678	-1122.4718	-52.95372	894.09436	-1128.45959	-104.58253	893.86066	-1105.84155	-71.467	829.96362	-1094.62292	37.64312	967.44147	-1556.75769	64.1129	978.08258	-1306.1427	-164.86273	1012.11444	-1462.04138	-157.64526	1018.28284	-1345.82239	-58.64704	659.47455	-1621.776	-97.45419	476.36072	-1613.12134	-250.01639	367.74133	-1602.5708	-388.38458	195.83847	-1570.54053	-416.64877	195.2411	-1510.38354	-323.23505	55.00573	-1602.09314	49.31231	672.68103	-1233.70288	83.59044	467.36194	-1281.41235	54.82927	279.88934	-1276.84924	43.18134	89.04743	-1318.73315	8.66033	36.44693	-1375.10168	196.18549	36.19313	-1307.8678	-26.72162	1788.36865	-1389.26904	-2845.89893	1033.65662	3356.95044	NaN	NaN	NaN
121	1.2	87.07145	1714.74084	-1466.25452	61.95499	1689.22021	-1326.22388	-49.57061	1659.7157	-1498.9635	-86.14083	1634.92566	-1361.52612	-130.9491	1514.27148	-1432.78259	-184.77191	1234.72412	-1420.71765	5.14623	1441.18237	-1441.48645	57.45753	1272.16541	-1433.98535	-190.4241	1335.79199	-1369.7937	-58.18927	1488.74304	-1611.25537	-53.67305	1291.0144	-1697.56409	-36.46641	1150.41125	-1715.79468	14.6437	1027.05591	-1730.9071	112.82673	931.05774	-1706.15955	66.01119	915.38904	-1733.6261	107.21454	864.1438	-1741.07764	-60.93704	1474.76953	-1245.43005	-106.06626	1288.12048	-1164.71045	-103.62547	1142.13184	-1146.0824	-84.6267	1025.12695	-1119.88281	-38.90185	896.52673	-1126.19141	-90.44392	895.61212	-1103.40332	-56.70953	832.16321	-1092.16614	45.35617	968.91345	-1555.56812	72.77925	978.65283	-1304.92017	-156.39497	1013.45392	-1459.59644	-148.77147	1020.18274	-1343.45178	-44.2481	660.26208	-1621.35278	-78.44928	476.83334	-1613.09253	-231.62427	370.68448	-1601.43713	-371.33298	200.28795	-1567.23682	-399.02042	198.34219	-1506.61133	-306.53714	60.70229	-1603.30481	55.43795	673.36743	-1232.47205	86.29741	467.19434	-1280.39453	56.82759	279.77435	-1276.00525	43.18795	88.93175	-1318.37964	8.48945	36.42233	-1374.89978	196.12474	36.23398	-1307.8938	-18.00826	1789.9718	-1387.60229	-2845.10571	1033.78491	3360.21484	NaN	NaN	NaN
122	1.21	95.8212	1716.60864	-1464.89294	70.95488	1690.92029	-1324.79492	-40.74426	1661.26306	-1497.43616	-77.03506	1636.36938	-1359.92651	-121.88796	1515.93921	-1430.81909	-175.75398	1236.41711	-1418.32227	14.15665	1442.77246	-1440.1449	66.32595	1273.58374	-1432.79749	-181.4234	1337.81299	-1367.53125	-50.18145	1490.29883	-1609.75977	-47.64478	1292.08655	-1695.43103	-32.04844	1151.12109	-1712.79163	16.56016	1027.0614	-1728.26184	113.2453	928.93457	-1703.53528	66.0775	914.2262	-1730.86206	106.08795	861.84027	-1737.99243	-50.69682	1476.56519	-1243.85974	-95.10476	1290.05444	-1162.53748	-92.11	1143.82214	-1143.46289	-71.6601	1026.8042	-1117.68079	-24.74987	898.94995	-1123.9613	-76.67217	897.3927	-1101.0675	-41.57784	834.51031	-1089.84204	52.77538	970.47253	-1554.86401	81.34163	979.10461	-1303.88562	-148.01691	1014.71637	-1457.16248	-140.21013	1021.93286	-1341.13672	-29.95395	661.5437	-1620.95337	-59.38872	477.74908	-1612.77954	-213.01445	373.54144	-1599.2749	-353.53406	204.07581	-1564.57288	-380.48535	200.69473	-1503.25928	-288.41852	65.4857	-1604.43616	61.70431	674.10126	-1231.21497	88.83667	466.85266	-1279.11975	58.5481	279.62302	-1275.42017	43.22664	88.94927	-1318.16638	8.31324	36.42348	-1374.73499	195.97176	36.1218	-1307.84094	-9.32294	1791.55151	-1386.08044	-2845.80859	1033.81775	3356.95337	NaN	NaN	NaN
123	1.22	104.55377	1718.42957	-1463.68555	79.96389	1692.61523	-1323.49463	-31.70053	1662.71875	-1495.70789	-67.96079	1637.828	-1358.41345	-112.98267	1517.6333	-1428.83508	-166.93587	1238.17432	-1415.98682	23.10142	1444.3479	-1438.9071	75.05741	1274.94885	-1431.70386	-171.9507	1339.56482	-1364.65979	-42.24094	1491.77478	-1608.37305	-41.68739	1293.09167	-1693.31396	-27.66109	1151.86133	-1709.94739	18.45494	1026.88684	-1725.42139	113.54607	926.91101	-1701.03894	65.95737	913.12891	-1728.21582	104.8429	859.63312	-1734.93274	-40.24175	1478.24829	-1242.26477	-83.89352	1291.76038	-1160.15186	-80.53617	1145.43738	-1141.02051	-58.49412	1028.73779	-1115.2063	-10.36577	901.38843	-1121.75671	-62.14225	899.12823	-1098.74573	-26.31392	836.8103	-1087.45886	60.11407	972.10736	-1554.5647	89.69992	979.50696	-1302.87341	-139.89009	1016.03497	-1454.69751	-131.89349	1023.63751	-1338.92859	-15.74614	663.14758	-1620.58533	-40.87132	479.44113	-1612.49121	-194.04211	375.87924	-1596.81335	-334.12491	206.101	-1561.69324	-361.2818	202.29066	-1500.55737	-269.08121	69.4568	-1605.31726	67.6106	674.64948	-1229.9447	90.78259	466.88809	-1278.59644	59.9226	279.42725	-1275.26379	43.20584	88.93521	-1318.10913	8.18225	36.39874	-1374.73743	195.89278	36.06299	-1307.76965	-0.5838	1793.11646	-1384.67896	-2845.13062	1033.67932	3360.23486	NaN	NaN	NaN
124	1.23	113.30476	1720.18713	-1462.58057	89.08311	1694.37268	-1322.40625	-23.13977	1664.37402	-1494.70081	-58.84956	1639.30859	-1357.02881	-104.02943	1519.4801	-1427.07678	-158.20418	1239.97742	-1413.70105	31.965	1445.8783	-1437.7229	83.68893	1276.27441	-1430.74524	-162.65788	1341.54541	-1361.87439	-34.31237	1493.11621	-1607.02307	-35.63163	1293.88586	-1690.9967	-23.32683	1152.63037	-1707.24719	20.39567	1026.89355	-1722.81519	113.58826	924.92645	-1698.53113	65.7281	912.17786	-1725.73804	103.33616	857.63104	-1732.0835	-29.83471	1479.95166	-1240.77954	-72.8702	1293.44653	-1157.99634	-68.88706	1147.07983	-1138.34241	-45.90989	1030.5835	-1112.39209	4.19031	903.83881	-1119.59021	-47.46477	900.89795	-1096.43384	-10.62247	839.18073	-1085.21997	67.40481	973.74707	-1554.45496	97.7881	979.88623	-1301.83875	-131.90121	1017.4682	-1452.36475	-123.8707	1025.31213	-1336.82825	-1.59284	665.07367	-1620.10864	-22.44143	481.36807	-1611.87402	-174.99442	377.85568	-1594.6344	-314.56824	207.47348	-1559.27319	-341.39612	202.50984	-1497.72913	-248.47823	72.70771	-1605.73169	72.90169	674.8681	-1228.78223	92.48172	466.41226	-1277.7511	60.4426	279.33151	-1274.96985	43.11411	89.10851	-1318.08521	8.09121	36.40691	-1374.73901	195.79869	36.05186	-1307.70483	8.29511	1794.57056	-1383.2572	-2845.81592	1033.76416	3357.12305	NaN	NaN	NaN
125	1.24	122.01035	1721.82458	-1461.64832	98.1336	1695.95935	-1321.39832	-14.18691	1665.75696	-1493.11145	-49.79425	1640.77332	-1355.71436	-94.99314	1521.17749	-1425.33679	-149.66721	1241.79614	-1411.47583	40.81385	1447.31604	-1436.67285	92.28612	1277.50647	-1429.82703	-154.26855	1343.82385	-1359.71338	-26.26074	1494.33167	-1605.52185	-29.98967	1294.9552	-1689.20972	-19.10362	1153.44434	-1704.77466	22.19821	1026.98022	-1720.29541	113.43042	922.99432	-1696.05042	65.29111	911.39166	-1723.3855	101.71011	855.76324	-1729.24146	-19.5814	1481.66833	-1239.48853	-61.67274	1295.33508	-1155.81091	-57.0701	1148.88245	-1135.44824	-32.55047	1032.42932	-1109.98792	18.96531	906.42969	-1117.58508	-32.13974	902.80371	-1094.08691	5.24601	841.65509	-1083.05176	74.62244	975.40332	-1554.44568	105.72726	980.34344	-1300.72058	-124.18724	1019.16681	-1450.08923	-115.8792	1026.92981	-1334.86475	12.40529	667.13965	-1619.66772	-4.39565	483.5116	-1611.24719	-156.13422	379.27588	-1592.65845	-294.52686	207.97832	-1557.04187	-321.11789	201.67	-1495.2926	-226.36728	75.19844	-1605.56738	77.75188	674.97577	-1227.76074	93.97752	466.2095	-1276.99353	60.15395	279.4093	-1274.48389	43.00963	89.06097	-1318.27161	8.10195	36.45658	-1374.83325	195.76909	36.0108	-1307.62036	16.9787	1796.21033	-1382.2085	-2845.10303	1033.72131	3360.23633	NaN	NaN	NaN
126	1.25	130.77055	1723.37	-1460.90015	107.31691	1697.48206	-1320.54114	-5.47785	1667.18982	-1491.96448	-40.68822	1642.16736	-1354.41602	-85.94164	1522.74329	-1423.60669	-141.28189	1243.63135	-1409.2699	49.63373	1448.66309	-1435.71033	100.7178	1278.67957	-1428.99744	-145.30336	1346.0127	-1357.28406	-18.33261	1495.56738	-1604.25806	-24.19415	1295.88977	-1687.2926	-15.18358	1154.45898	-1702.67151	23.91466	1027.12781	-1718.0155	113.12395	921.24792	-1693.7085	64.9035	910.69293	-1721.05347	99.97969	854.12402	-1726.62781	-9.03051	1483.29504	-1238.03149	-50.15393	1296.90271	-1153.29553	-45.17776	1150.49023	-1132.77051	-18.99984	1034.47058	-1107.70203	33.77038	908.81372	-1115.80713	-17.13689	904.73621	-1091.86475	21.29188	844.21576	-1080.91382	81.83733	977.04041	-1554.36414	113.40929	980.9342	-1299.53992	-116.52326	1020.9906	-1447.93958	-108.12142	1028.52515	-1333.05432	26.18392	669.35193	-1619.17078	13.31766	485.58569	-1610.49915	-137.36958	380.43823	-1590.89063	-273.89014	207.56952	-1555.2677	-300.41278	199.91789	-1493.2804	-202.76381	76.81252	-1604.86243	81.74301	674.83496	-1226.95337	95.71168	465.99011	-1276.12878	59.84666	279.58328	-1274.21973	43.00365	89.13262	-1318.42566	8.1273	36.51613	-1375.01953	195.76256	35.97501	-1307.55676	25.8978	1797.67822	-1381.16638	-2845.89063	1033.70459	3357.29858	NaN	NaN	NaN
127	1.26	139.62943	1724.51794	-1459.96997	116.44398	1698.94482	-1319.797	2.96977	1668.63965	-1491.19421	-31.65165	1643.55176	-1353.28333	-77.02187	1524.24976	-1421.96252	-132.91129	1245.37854	-1407.13513	58.45512	1449.95569	-1434.80847	109.11234	1279.80554	-1428.17554	-136.24242	1347.92969	-1354.61841	-10.58044	1496.82935	-1603.20044	-18.43055	1296.81201	-1685.4679	-11.18688	1155.32825	-1700.51843	25.4907	1027.32922	-1715.76636	112.65363	919.58002	-1691.36572	64.24047	910.02661	-1718.84375	98.08064	852.71594	-1724.1344	1.00221	1485.05457	-1236.95215	-39.10024	1298.83484	-1151.37219	-33.26794	1152.29919	-1130.37842	-5.54589	1036.33521	-1105.27527	48.78584	911.80603	-1113.85303	-1.7921	906.78687	-1089.52979	37.36193	846.85907	-1078.85242	89.19485	978.73547	-1554.08459	120.93541	981.61584	-1298.20886	-108.96487	1022.84503	-1446.07959	-100.45061	1029.9696	-1331.5144	39.59366	671.69366	-1618.61462	30.46038	487.75021	-1609.75623	-118.6599	380.9556	-1589.02722	-252.33148	205.62703	-1553.22327	-279.10352	197.41394	-1491.42419	-178.03181	77.60753	-1603.99207	85.04401	674.68933	-1226.42981	96.84235	465.86685	-1275.85205	59.73919	279.74927	-1273.99451	43.01954	89.21194	-1318.59314	8.22039	36.47934	-1375.27075	195.79103	35.92598	-1307.49084	34.8019	1799.04053	-1380.22437	-2845.07861	1033.80969	3360.21704	NaN	NaN	NaN
128	1.27	148.38194	1725.92004	-1459.40979	125.57419	1700.31079	-1319.22546	11.61688	1669.88257	-1490.21924	-22.48768	1644.83264	-1352.13391	-68.20145	1525.68628	-1420.46924	-124.6989	1247.11926	-1404.99976	67.17127	1451.08411	-1433.87842	117.34121	1280.78882	-1427.34326	-127.61225	1349.88733	-1352.32947	-2.63174	1497.88818	-1601.95776	-12.72027	1297.703	-1683.7937	-7.14906	1156.04248	-1698.18359	27.15961	1027.44031	-1713.46899	112.0934	918.15723	-1689.18127	63.56409	909.5282	-1716.75623	96.11584	851.36133	-1721.70044	11.16743	1486.77051	-1235.83252	-27.79082	1300.5802	-1149.1991	-20.88964	1154.15442	-1127.54651	8.5655	1038.64722	-1102.88525	63.62358	914.56012	-1112.39368	13.55763	908.98645	-1087.35596	53.99628	849.90985	-1077.02124	96.72274	980.52374	-1553.48865	128.32767	982.43176	-1296.79553	-101.40628	1024.67969	-1444.41272	-92.88184	1031.17188	-1330.1084	52.58123	673.97375	-1617.70422	47.19733	489.90015	-1608.90979	-100.05511	380.86026	-1587.25586	-230.341	202.90381	-1551.69165	-257.17657	193.72383	-1489.98694	-152.51158	77.40279	-1602.87964	87.67347	674.59039	-1226.07202	98.26691	465.73871	-1275.43921	60.0148	279.85748	-1273.77234	43.05	89.28984	-1318.68323	8.44191	36.24853	-1375.96252	195.77179	35.76629	-1307.57227	43.75014	1800.45276	-1379.47473	-2845.86792	1033.83374	3357.2793	NaN	NaN	NaN
